<svg width="19" height="19" viewBox="0 0 19 19" fill="none" xmlns="http://www.w3.org/2000/svg">
<path d="M9.5 0C4.25968 0 0 4.25968 0 9.5C0 14.7403 4.25968 19 9.5 19C14.7403 19 19 14.7403 19 9.5C19 4.25968 14.7403 0 9.5 0ZM8.58065 14.0968V13.4287C8.58065 12.92 8.99128 12.5093 9.5 12.5093C10.0087 12.5093 10.4194 12.92 10.4194 13.4287V14.0968C10.4194 14.6055 10.0087 15.0161 9.5 15.0161C8.99128 15.0161 8.58065 14.6055 8.58065 14.0968ZM10.4194 10.7503C10.4194 11.2529 10.0087 11.6697 9.5 11.6697C8.99128 11.6697 8.58065 11.2529 8.58065 10.7503V4.90323C8.58065 4.3945 8.99128 3.98387 9.5 3.98387C10.0087 3.98387 10.4194 4.3945 10.4194 4.90323V10.7503Z" fill="black"/>
</svg>
