<svg width="10" height="10" viewBox="0 0 10 10" fill="none" xmlns="http://www.w3.org/2000/svg">
<g clip-path="url(#clip0_75_100)">
<path d="M4.99998 0.833328C2.69998 0.833328 0.833313 2.69999 0.833313 4.99999C0.833313 7.29999 2.69998 9.16666 4.99998 9.16666C7.29998 9.16666 9.16665 7.29999 9.16665 4.99999C9.16665 2.69999 7.29998 0.833328 4.99998 0.833328ZM4.99998 7.08333C4.77081 7.08333 4.58331 6.89583 4.58331 6.66666V4.99999C4.58331 4.77083 4.77081 4.58333 4.99998 4.58333C5.22915 4.58333 5.41665 4.77083 5.41665 4.99999V6.66666C5.41665 6.89583 5.22915 7.08333 4.99998 7.08333ZM5.41665 3.74999H4.58331V2.91666H5.41665V3.74999Z" fill="#FF0000"/>
</g>
<defs>
<clipPath id="clip0_75_100">
<rect width="10" height="10" fill="white"/>
</clipPath>
</defs>
</svg>
