<svg width="12" height="12" viewBox="0 0 12 12" fill="none" xmlns="http://www.w3.org/2000/svg">
<path fill-rule="evenodd" clip-rule="evenodd" d="M6 12C9.3138 12 12 9.3138 12 6C12 2.6862 9.3138 0 6 0C2.6862 0 0 2.6862 0 6C0 9.3138 2.6862 12 6 12ZM3.6 5.4C3.44087 5.4 3.28826 5.46321 3.17574 5.57574C3.06321 5.68826 3 5.84087 3 6C3 6.15913 3.06321 6.31174 3.17574 6.42426C3.28826 6.53679 3.44087 6.6 3.6 6.6H8.4C8.55913 6.6 8.71174 6.53679 8.82426 6.42426C8.93679 6.31174 9 6.15913 9 6C9 5.84087 8.93679 5.68826 8.82426 5.57574C8.71174 5.46321 8.55913 5.4 8.4 5.4H3.6Z" fill="#434343"/>
</svg>
